<svg xmlns="http://www.w3.org/2000/svg" version="1.1" xmlns:xlink="http://www.w3.org/1999/xlink" xmlns:svgjs="http://svgjs.com/svgjs" width="32" height="40"><svg version="1.1" id="SvgjsSvg1000" xmlns="http://www.w3.org/2000/svg" xmlns:xlink="http://www.w3.org/1999/xlink" x="0px" y="0px" viewBox="0 0 726 1280" style="enable-background:new 0 0 726 1280;" xml:space="preserve">
<g transform="translate(0.000000,1280.000000) scale(0.100000,-0.100000)">
	<path d="M3575,12763c-499-452-772-761-1068-1209c-852-1289-1122-2868-791-4624c137-727,396-1521,709-2176l64-134h1131h1131l69,144
		c380,796,671,1780,779,2636c71,563,80,1160,25,1650c-116,1039-473,1959-1073,2765c-242,324-499,601-847,913c-44,39-83,72-85,72
		S3597,12783,3575,12763z M3797,9685c386-73,682-347,785-725c20-74,23-107,22-255c0-194-15-264-82-409c-54-115-112-198-201-287
		c-126-126-282-216-453-262c-70-18-109-22-248-22c-196,1-276,18-435,96c-269,131-462,375-531,674c-28,118-26,329,4,449
		c83,332,334,602,661,711C3454,9699,3654,9712,3797,9685z M3765,7405c39-8,112-35,163-60c264-131,415-435,358-725
		c-47-239-217-436-448-517c-106-38-273-44-381-14c-199,54-355,180-441,356c-47,94-68,189-67,305c0,115,18,188,73,300
		c33,69,58,101,127,170c53,53,109,98,146,117c58,30,164,68,215,76C3568,7423,3700,7419,3765,7405z M3729,5755
		c221-53,379-285,342-505c-22-133-88-239-191-309c-143-95-321-107-471-30c-52,26-145,114-176,166c-132,226-50,522,179,639
		C3515,5769,3616,5781,3729,5755z"></path>
	<path d="M5512,6228c-23-73-67-238-97-367c-90-382-179-626-387-1053c-56-115-99-210-97-212c15-13,250-166,434-283
		c786-499,1294-755,1604-808c236-41,329,56,275,285c-65,280-337,756-794,1395c-217,302-817,1092-884,1163
		C5556,6358,5545,6333,5512,6228z"></path>
	<path d="M1573,6178C999,5452,524,4786,275,4355c-93-160-200-387-236-498c-27-83-33-118-34-189c0-93,11-119,67-161
		c34-26,155-34,240-17c243,47,660,245,1198,568c294,177,820,515,820,528c0,4-41,89-90,190c-143,291-242,526-305,724
		c-14,47-56,204-91,350c-59,243-129,490-139,490C1703,6340,1644,6267,1573,6178z"></path>
	<path d="M2679,4383c-309-324-540-741-649-1172c-59-234-81-414-81-671c0-239,16-391,67-620c28-124,121-420,133-420c4,0,17,39,30,88
		c145,562,316,939,465,1027c58,34,124,34,182,0c241-141,492-916,734-2265c28-157,53-296,57-310c6-28,3-43,73,345
		c215,1192,437,1925,654,2162c66,72,104,93,166,93c175,0,352-319,526-948c59-217,53-201,66-179c18,33,78,220,108,337
		c118,462,116,952-5,1395c-115,418-339,821-620,1114l-97,101h-868h-867L2679,4383z"></path>
</g>
</svg><style>path {
			fill: #000000;
		}
		<!-- @media ( prefers-color-scheme: dark ) {
			path {
				fill: #000000;
			} -->
		}
</style></svg>