
<svg viewBox="0 0 341 175" style="enable-background:new 0 0 341 175;">
<g>
	<path d="M20.4,44.9c-5.1,4.6-7.9,7.8-10.9,12.4C0.8,70.4-2,86.5,1.4,104.5c1.4,7.4,4,15.5,7.2,22.2l0.7,1.4h11.6h11.6l0.7-1.5
		c3.9-8.1,6.9-18.2,8-26.9c0.7-5.8,0.8-11.9,0.3-16.9c-1.2-10.6-4.8-20-11-28.2c-2.5-3.3-5.1-6.1-8.7-9.3c-0.4-0.4-0.8-0.7-0.9-0.7
		C20.8,44.5,20.6,44.7,20.4,44.9z M22.7,76.3c3.9,0.7,7,3.5,8,7.4c0.2,0.8,0.2,1.1,0.2,2.6c0,2-0.2,2.7-0.8,4.2
		c-0.6,1.2-1.1,2-2.1,2.9c-1.3,1.3-2.9,2.2-4.6,2.7c-0.7,0.2-1.1,0.2-2.5,0.2c-2,0-2.8-0.2-4.4-1c-2.7-1.3-4.7-3.8-5.4-6.9
		c-0.3-1.2-0.3-3.4,0-4.6c0.8-3.4,3.4-6.2,6.8-7.3C19.2,76.2,21.2,76.1,22.7,76.3z M22.3,99.6c0.4,0.1,1.1,0.4,1.7,0.6
		c2.7,1.3,4.2,4.4,3.7,7.4c-0.5,2.4-2.2,4.5-4.6,5.3c-1.1,0.4-2.8,0.4-3.9,0.1c-2-0.6-3.6-1.8-4.5-3.6c-0.5-1-0.7-1.9-0.7-3.1
		c0-1.2,0.2-1.9,0.7-3.1c0.3-0.7,0.6-1,1.3-1.7c0.5-0.5,1.1-1,1.5-1.2c0.6-0.3,1.7-0.7,2.2-0.8C20.3,99.4,21.7,99.5,22.3,99.6z
		 M22,116.5c2.3,0.5,3.9,2.9,3.5,5.2c-0.2,1.4-0.9,2.4-2,3.2c-1.5,1-3.3,1.1-4.8,0.3c-0.5-0.3-1.5-1.2-1.8-1.7
		c-1.3-2.3-0.5-5.3,1.8-6.5C19.8,116.3,20.8,116.2,22,116.5z"/>
	<path d="M11.2,130.5c-3.2,3.3-5.5,7.6-6.6,12c-0.6,2.4-0.8,4.2-0.8,6.9c0,2.4,0.2,4,0.7,6.3c0.3,1.3,1.2,4.3,1.4,4.3
		c0,0,0.2-0.4,0.3-0.9c1.5-5.7,3.2-9.6,4.8-10.5c0.6-0.3,1.3-0.3,1.9,0c2.5,1.4,5,9.4,7.5,23.1c0.3,1.6,0.5,3,0.6,3.2
		c0.1,0.3,0,0.4,0.7-3.5c2.2-12.2,4.5-19.7,6.7-22.1c0.7-0.7,1.1-1,1.7-1c1.8,0,3.6,3.3,5.4,9.7c0.6,2.2,0.5,2.1,0.7,1.8
		c0.2-0.3,0.8-2.2,1.1-3.4c1.2-4.7,1.2-9.7-0.1-14.3c-1.2-4.3-3.5-8.4-6.3-11.4l-1-1h-8.9H12L11.2,130.5z"/>
	<circle cx="20.6" cy="15.5" r="15.5"/>
</g>
<path d="M60.4,153V43.5h25.3l40,67.1V43.5h23.5V153h-25.3l-40-67.1V153H60.4z"/>
<path d="M168,153V43.5h44.6c6,0,11.4,1.5,16.3,4.5c4.8,3,8.7,7.1,11.5,12.2c2.8,5.1,4.3,10.7,4.3,16.8c0,4.7-0.8,9.1-2.3,13.1
	c-1.6,4-3.8,7.6-6.7,10.7c-2.9,3.1-6.3,5.6-10.2,7.5l26,44.7h-27l-24.7-42.5h-8.1V153H168z M191.5,87h18.3c2.1,0,4-0.5,5.7-1.6
	c1.7-1.1,3.1-2.5,4.1-4.3c1-1.8,1.6-3.7,1.6-5.9c0-2.1-0.5-4.1-1.6-5.9c-1-1.8-2.4-3.2-4.1-4.3c-1.7-1.1-3.6-1.6-5.7-1.6h-18.3V87z"
	/>
<path d="M299.4,155c-6.1,0-12-1-17.7-2.9c-5.6-2-10.6-4.8-14.8-8.4c-4.2-3.7-7.3-8.1-9.1-13.2l22-8.1c0.5,1.5,1.7,3,3.5,4.4
	c1.8,1.4,4.1,2.6,6.8,3.5c2.8,0.9,5.8,1.4,9.2,1.4c3.1,0,6.1-0.5,8.8-1.4c2.8-0.9,5-2.2,6.7-3.8c1.7-1.6,2.6-3.5,2.6-5.6
	c0-2.2-0.9-4-2.7-5.4c-1.8-1.4-4.1-2.6-6.9-3.4c-2.8-0.9-5.6-1.5-8.6-1.9c-7.9-1.1-15-3-21.3-5.7c-6.3-2.6-11.2-6.3-14.9-10.9
	c-3.6-4.6-5.4-10.5-5.4-17.7c0-6.8,1.9-12.8,5.8-17.9c3.9-5.1,9-9.1,15.3-12c6.3-2.9,13.2-4.3,20.5-4.3c6.1,0,12.1,1,17.7,2.9
	c5.7,2,10.6,4.8,14.8,8.5c4.2,3.7,7.2,8.1,9.1,13.3l-22,8c-0.5-1.5-1.7-3-3.5-4.3c-1.8-1.4-4.1-2.5-6.8-3.4
	c-2.8-0.9-5.8-1.3-9.2-1.3c-3-0.1-5.9,0.4-8.7,1.3c-2.8,0.9-5,2.2-6.8,3.8c-1.8,1.6-2.7,3.4-2.7,5.5c0,2.8,0.8,4.9,2.5,6.3
	c1.7,1.4,3.9,2.4,6.6,2.9c2.7,0.6,5.7,1.1,9,1.6c7.5,1.1,14.4,3,20.7,5.9c6.3,2.8,11.4,6.6,15.2,11.3c3.8,4.7,5.7,10.4,5.7,17.1
	c0,6.8-1.9,12.8-5.7,17.9c-3.8,5.1-8.9,9.1-15.2,12C313.8,153.6,306.9,155,299.4,155z"/>
</svg>
