 
<svg  
	 viewBox="0 0 405.3 175" style="enable-background:new 0 0 405.3 175;" >
<g>
	<path d="M85.8,154.7V46.1h17.4l49.9,79.4V46.1h16.1v108.6h-17.4l-49.9-79.4v79.4H85.8z"/>
	<path d="M218.8,154.7V46.1h39.9c5.9,0,11.2,1.4,15.9,4.3c4.7,2.9,8.4,6.8,11.2,11.7c2.8,4.9,4.1,10.3,4.1,16.3
		c0,5.1-0.9,9.7-2.8,13.9c-1.9,4.2-4.5,7.8-7.9,10.7c-3.4,2.9-7.3,5.1-11.6,6.4l26.2,45.3h-18.7l-25.4-43.8H235v43.8H218.8z
		 M235,94.7h22.1c3.1,0,5.9-0.8,8.5-2.3c2.6-1.6,4.6-3.6,6.1-6.2c1.5-2.6,2.2-5.5,2.2-8.8s-0.8-6.2-2.2-8.8
		c-1.5-2.6-3.5-4.7-6.1-6.2c-2.6-1.5-5.4-2.3-8.5-2.3H235V94.7z"/>
	<path d="M365,156.7c-5.9,0-11.7-0.9-17.1-2.8s-10.3-4.5-14.3-8c-4.1-3.5-7-7.6-8.8-12.4l15.1-5.7c0.9,2.5,2.6,4.7,5.1,6.6
		s5.5,3.5,9,4.5c3.5,1.1,7.2,1.6,11.1,1.6c4.1,0,8-0.7,11.7-2c3.6-1.3,6.6-3.2,8.8-5.6c2.2-2.4,3.4-5.2,3.4-8.4c0-3.3-1.2-6-3.5-8.1
		c-2.4-2.1-5.4-3.8-9-5c-3.6-1.2-7.4-2.2-11.4-2.8c-7.6-1.2-14.4-3-20.4-5.4c-6-2.4-10.8-5.7-14.3-10s-5.2-9.9-5.2-16.8
		c0-6.5,1.8-12.1,5.5-16.9c3.7-4.8,8.6-8.5,14.7-11.2c6.1-2.7,12.7-4,19.7-4c5.8,0,11.5,0.9,16.9,2.8c5.5,1.8,10.3,4.5,14.4,8
		c4.2,3.5,7.1,7.7,9,12.7L390,73.3c-0.9-2.5-2.6-4.7-5-6.6c-2.5-1.9-5.5-3.4-9-4.5s-7.2-1.6-11.1-1.6c-4.1-0.1-8,0.6-11.6,2
		c-3.6,1.4-6.5,3.2-8.8,5.6c-2.3,2.4-3.4,5.1-3.4,8.3c0,3.9,1.1,6.8,3.2,8.8c2.1,2,5,3.5,8.6,4.5c3.6,1,7.6,1.8,12.1,2.6
		c7.1,1.1,13.7,3,19.8,5.7c6.1,2.6,11,6.1,14.7,10.5c3.7,4.4,5.5,9.7,5.5,16.1c0,6.4-1.8,12-5.5,16.9c-3.7,4.8-8.6,8.6-14.7,11.2
		C378.7,155.4,372.1,156.7,365,156.7z"/>
	<g transform="translate(0.000000,1280.000000) scale(0.100000,-0.100000)">
		<path d="M203.9,12351.1c-51-46.2-78.9-77.7-109.1-123.5c-87-131.7-114.6-293-80.8-472.4c14-74.3,40.5-155.4,72.4-222.3l6.5-13.7
			h115.5h115.5l7,14.7c38.8,81.3,68.6,181.9,79.6,269.3c7.3,57.5,8.2,118.5,2.6,168.6c-11.9,106.1-48.3,200.1-109.6,282.5
			c-24.7,33.1-51,61.4-86.5,93.3c-4.5,4-8.5,7.4-8.7,7.4S206.2,12353.2,203.9,12351.1z M226.6,12036.7c39.4-7.5,69.7-35.5,80.2-74.1
			c2-7.6,2.3-10.9,2.2-26.1c0-19.8-1.5-27-8.4-41.8c-5.5-11.7-11.4-20.2-20.5-29.3c-12.9-12.9-28.8-22.1-46.3-26.8
			c-7.2-1.8-11.1-2.2-25.3-2.2c-20,0.1-28.2,1.8-44.4,9.8c-27.5,13.4-47.2,38.3-54.2,68.9c-2.9,12.1-2.7,33.6,0.4,45.9
			c8.5,33.9,34.1,61.5,67.5,72.6C191.6,12038.1,212,12039.4,226.6,12036.7z M223.3,11803.7c4-0.8,11.4-3.6,16.7-6.1
			c27-13.4,42.4-44.4,36.6-74.1c-4.8-24.4-22.2-44.5-45.8-52.8c-10.8-3.9-27.9-4.5-38.9-1.4c-20.3,5.5-36.3,18.4-45.1,36.4
			c-4.8,9.6-6.9,19.3-6.8,31.2c0,11.7,1.8,19.2,7.5,30.6c3.4,7,5.9,10.3,13,17.4c5.4,5.4,11.1,10,14.9,12c5.9,3.1,16.8,6.9,22,7.8
			C203.2,11805.6,216.7,11805.2,223.3,11803.7z M219.7,11635.1c22.6-5.4,38.7-29.1,34.9-51.6c-2.2-13.6-9-24.4-19.5-31.6
			c-14.6-9.7-32.8-10.9-48.1-3.1c-5.3,2.7-14.8,11.6-18,17c-13.5,23.1-5.1,53.3,18.3,65.3
			C197.8,11636.6,208.1,11637.8,219.7,11635.1z"/>
		<path d="M112.4,11495c-31.6-33.1-55.2-75.7-66.3-119.7c-6-23.9-8.3-42.3-8.3-68.6c0-24.4,1.6-39.9,6.8-63.3
			c2.9-12.7,12.4-42.9,13.6-42.9c0.4,0,1.7,4,3.1,9c14.8,57.4,32.3,95.9,47.5,104.9c5.9,3.5,12.7,3.5,18.6,0
			c24.6-14.4,50.3-93.6,75-231.4c2.9-16,5.4-30.2,5.8-31.7c0.6-2.9,0.3-4.4,7.5,35.2c22,121.8,44.6,196.7,66.8,220.9
			c6.7,7.4,10.6,9.5,17,9.5c17.9,0,36-32.6,53.7-96.9c6-22.2,5.4-20.5,6.7-18.3c1.8,3.4,8,22.5,11,34.4
			c12.1,47.2,11.9,97.3-0.5,142.5c-11.7,42.7-34.6,83.9-63.3,113.8l-9.9,10.3h-88.7H120L112.4,11495z"/>
	</g>
	<circle cx="20.6" cy="15.5" r="15.5"/>
</g>
</svg>
